HIERARCHY
ROOT Hip
{
   OFFSET 0.00000 0.00000 0.00000
   CHANNELS 6 Xposition Yposition Zposition Zrotation Yrotation Xrotation
   JOINT Head
   {
      OFFSET 0.000000 21.380400 0.000000
      CHANNELS 3 Zrotation Yrotation Xrotation
      End Site
      {
         OFFSET 0.000000 12.738600 0.000000
      }
      JOINT LeftShoulder
      {
         OFFSET 7.069139 0.000000 0.000000
         CHANNELS 3 Zrotation Yrotation Xrotation
         JOINT LeftHand
         {
            OFFSET 0.000000 -10.330199 0.000000
            CHANNELS 3 Zrotation Yrotation Xrotation
            End Site
            {
               OFFSET 0.000000 -11.313900 0.000000
            }
         }
      }
      JOINT RightShoulder
      {
         OFFSET -7.534079 0.000000 0.000000
         CHANNELS 3 Zrotation Yrotation Xrotation
         JOINT RghtHand
         {
            OFFSET 0.000000 -12.377699 0.000000
            CHANNELS 3 Zrotation Yrotation Xrotation
            End Site
            {
               OFFSET 0.000000 -8.478720 0.000000
            }
         }
      }
   }
   JOINT LeftHip
   {
      OFFSET 7.480170 0.000000 0.000000
      CHANNELS 3 Zrotation Yrotation Xrotation
      JOINT LeftKnee
      {
         OFFSET 0.000000 -21.085198 0.000000
         CHANNELS 3 Zrotation Yrotation Xrotation
         JOINT LeftFoot
         {
            OFFSET 0.000000 -16.076700 0.000000
            CHANNELS 3 Zrotation Yrotation Xrotation
            End Site
            {
               OFFSET 0.000000 0.000000 10.476900
            }
         }
      }
   }
   JOINT RightHip
   {
      OFFSET -7.480170 0.000000 0.000000
      CHANNELS 3 Zrotation Yrotation Xrotation
      JOINT RightKnee
      {
         OFFSET 0.000000 -19.082700 0.000000
         CHANNELS 3 Zrotation Yrotation Xrotation
         JOINT RightFoot
         {
            OFFSET 0.000000 -16.365599 0.000000
            CHANNELS 3 Zrotation Yrotation Xrotation
            End Site
            {
               OFFSET 0.000000 0.000000 10.523699
            }
         }
      }
   }
}
MOTION
Frames: 27
Frame Time: 0.016670
8.144261 40.046095 -15.384087 136.634178 85.678064 138.905502 -3.954305 19.700914 -25.601801 17.079130 -15.412132 20.604792 -9.106084 -0.546642 11.920845 -36.060202 -8.688075 41.700859 -23.733835 4.280299 41.997918 -12.372527 -58.566031 -0.377321 29.811597 -53.102849 -0.899390 5.345642 -49.945666 -11.544656 -11.068618 -44.325346 4.858534 7.731701 -47.899287 0.299392 6.994601 -41.978773 6.330317
8.138079 40.055727 -15.364870 171.582603 62.186946 174.033275 -0.885517 -5.090163 -26.052597 9.183599 -23.834526 23.837196 -11.654389 -2.196680 10.154790 -43.843404 -11.218770 42.916964 -27.429679 4.721107 37.650786 -3.298951 -68.339772 -10.595861 28.648091 -59.966527 -9.081659 6.260831 -57.146260 -12.379119 -23.050343 -52.421408 24.445776 23.591038 -51.577525 -13.981618 8.625994 -50.207983 7.995468
8.126199 40.056195 -15.351856 171.277922 62.243439 173.503156 -1.122304 -5.486301 -25.872285 4.585346 -33.207540 26.192985 -14.569664 -3.455082 7.918593 -48.209176 -16.049915 44.002848 -31.597172 5.416813 33.937523 -3.214528 -68.681971 -10.704208 28.444878 -60.067122 -9.600614 6.306892 -57.249030 -12.252730 -24.897025 -53.221790 26.201195 25.317278 -50.838963 -15.020535 8.422498 -50.380093 7.625811
8.132644 40.053963 -15.343958 171.068549 62.732207 172.999293 -1.300845 -5.094257 -25.554511 -0.421979 -41.375835 29.209331 -16.758474 -4.577205 5.599365 -52.537935 -20.623281 45.396866 -35.191146 5.557114 30.098086 -3.770542 -68.846702 -10.099129 28.195769 -60.048182 -9.548604 6.271657 -57.141694 -12.169456 -26.291133 -53.666859 27.330963 25.968970 -50.338125 -14.960522 8.268335 -50.111107 7.359598
8.120898 40.050048 -15.318240 170.854300 63.053964 172.543843 -1.447419 -4.649005 -25.247328 -5.550293 -48.000111 32.849081 -18.281437 -5.499527 3.289858 -56.747790 -24.859964 47.138421 -38.235747 5.291983 26.401787 -4.104498 -68.992963 -9.719711 28.025723 -60.011804 -9.588366 6.212770 -57.045750 -12.119881 -27.713634 -54.151676 28.516436 26.646313 -49.821900 -14.864319 8.105802 -49.831233 7.098903
8.106851 40.046429 -15.283518 170.660445 63.289428 172.107325 -1.624855 -4.185423 -24.926840 -10.636794 -52.875722 36.858928 -19.224986 -6.188942 1.160946 -60.827629 -28.682970 49.069435 -40.762350 4.753412 22.965840 -4.386826 -69.110053 -9.379045 27.834387 -59.987680 -9.626375 6.164274 -56.961162 -12.062462 -29.243424 -54.630927 29.824417 27.340875 -49.290497 -14.690048 7.935094 -49.532276 6.842194
8.088969 40.037722 -15.239707 170.504895 63.480085 171.682884 -1.768115 -3.637147 -24.559945 -15.385167 -56.296127 40.844886 -19.778317 -6.637763 -0.682460 -64.737646 -32.012127 51.175271 -42.743153 4.024748 19.879892 -4.697597 -69.174592 -9.015250 27.621609 -59.984818 -9.584763 6.104309 -56.884868 -12.020229 -30.896368 -55.102753 31.281088 28.110755 -48.714203 -14.480990 7.720503 -49.204963 6.550178
8.062885 40.033540 -15.176453 170.383918 63.595406 171.323985 -1.889237 -3.073043 -24.197386 -19.672567 -58.663996 44.628849 -20.141603 -6.868098 -2.228870 -68.397904 -34.888340 53.369920 -44.269045 3.207898 17.207031 -4.854072 -69.222697 -8.783607 27.438255 -59.994380 -9.586681 6.051423 -56.832577 -11.978548 -32.608331 -55.644954 32.792886 28.750302 -48.168943 -14.105175 7.548372 -48.837338 6.328189
8.053546 40.025114 -15.123554 170.214311 63.984099 170.844888 -2.000901 -2.237935 -23.698776 -23.522224 -60.253798 48.130765 -20.352738 -6.904701 -3.600334 -71.765911 -37.379703 55.504457 -45.440794 2.377065 14.891178 -5.506431 -69.262093 -8.021990 27.244033 -59.895602 -9.333135 5.945538 -56.631427 -11.960943 -34.410773 -56.074518 34.331645 29.267832 -47.562968 -13.521741 7.334238 -48.334209 6.074780
7.991001 40.014848 -15.009219 170.208724 63.848219 170.699774 -2.081694 -1.811188 -23.396550 -26.951218 -61.183270 51.348580 -20.428831 -6.764339 -4.820623 -74.823698 -39.435672 57.604367 -46.266663 1.557442 12.954736 -5.101795 -69.148842 -8.371586 27.082844 -60.038961 -9.412076 5.874434 -56.733795 -11.984712 -36.104001 -56.946736 35.925354 29.640559 -47.001557 -13.046669 7.149391 -47.861389 5.872259
7.949575 40.024795 -14.910471 170.116421 64.013892 170.391664 -2.189891 -1.109574 -22.983909 -30.071206 -61.721237 54.298583 -20.477971 -6.469213 -5.872772 -77.544572 -41.209943 59.582677 -46.822443 0.768671 11.260455 -5.218390 -69.158240 -8.116537 26.991946 -59.983152 -9.334452 5.816636 -56.620926 -11.936184 -37.834060 -57.764105 37.483631 29.698059 -46.382899 -12.349161 7.030213 -47.213744 5.783151
7.895186 40.025105 -14.788857 170.101258 64.102719 170.201634 -2.236736 -0.487208 -22.590093 -32.869025 -62.022298 56.956531 -20.648645 -6.042098 -6.806933 -79.956462 -42.684417 61.422949 -47.257836 0.050709 9.858452 -5.217031 -69.218305 -7.954294 27.032203 -59.903354 -9.277196 5.726783 -56.510516 -11.930643 -39.554554 -58.697075 39.068074 29.667377 -45.769347 -11.624671 6.843267 -46.565211 5.613329
7.820775 40.029096 -14.678615 169.989871 64.185535 169.962823 -2.317482 0.137252 -22.187767 -35.403425 -62.056981 59.350785 -20.802666 -5.497474 -7.587787 -82.089667 -43.995175 63.070930 -47.684720 -0.595974 8.701718 -5.254289 -69.026554 -7.914213 26.925041 -59.973910 -9.030904 5.661683 -56.507033 -11.928969 -41.270021 -59.616862 40.490680 29.431224 -45.227675 -10.663716 6.640263 -45.920072 5.425166
7.743030 40.032477 -14.544853 169.949122 64.174647 169.846669 -2.293217 0.668680 -21.819637 -37.663931 -61.890052 61.488088 -21.041193 -4.846985 -8.366753 -83.943783 -45.117856 64.536982 -48.019310 -1.187423 7.729245 -5.086378 -68.995395 -7.990164 27.031776 -59.937061 -8.945371 5.594036 -56.449239 -11.921323 -42.904253 -60.625674 41.915529 29.080811 -44.695272 -9.737648 6.433931 -45.291930 5.239585
7.671701 40.047020 -14.428677 169.830181 64.236508 169.616683 -2.242672 1.230553 -21.437136 -39.696878 -61.578349 63.420437 -21.277931 -4.093503 -8.992987 -85.535210 -46.090048 65.893806 -48.189805 -1.751291 6.929968 -5.119388 -68.835241 -7.934824 26.999053 -59.960598 -8.725303 5.560669 -56.415863 -11.885997 -44.583650 -61.512240 43.332960 28.698078 -44.169659 -8.793956 6.263996 -44.690624 5.107483
7.594429 40.055093 -14.294672 169.801931 64.187918 169.500338 -2.146936 1.712155 -21.107293 -41.530142 -61.184643 65.119208 -21.670052 -3.270830 -9.514918 -86.929149 -46.938897 67.109464 -48.270654 -2.278718 6.395443 -4.865355 -68.755976 -8.105952 27.040063 -59.974334 -8.692263 5.509693 -56.409675 -11.884161 -46.231460 -62.383874 44.810317 28.338448 -43.647470 -7.915709 6.056119 -44.130061 4.930245
7.511037 40.060729 -14.154144 169.796536 64.128735 169.416436 -2.039436 2.162927 -20.757771 -43.172273 -60.801149 66.593402 -22.166658 -2.380825 -9.989060 -88.169143 -47.668204 68.172938 -48.415871 -2.768558 6.045587 -4.524989 -68.573481 -8.386107 27.004925 -60.077415 -8.630907 5.472730 -56.481057 -11.889628 -47.879134 -63.207793 46.314434 28.025675 -43.145953 -7.084125 5.852551 -43.623503 4.762638
7.432859 40.064363 -14.026106 169.773668 64.058090 169.267865 -1.944089 2.549076 -20.347757 -44.655292 -60.475260 67.859405 -22.742069 -1.428665 -10.378463 -89.245069 -48.365126 69.085540 -48.639276 -3.225719 5.798939 -4.322558 -68.461199 -8.528630 26.934175 -60.164316 -8.587252 5.421248 -56.535928 -11.908892 -49.576986 -63.849421 47.864429 27.818585 -42.697329 -6.331487 5.645996 -43.211383 4.583900
7.354463 40.068421 -13.900323 169.749831 63.974263 169.083013 -1.873772 2.903325 -19.885309 -45.982309 -60.175135 68.954147 -23.428790 -0.418475 -10.802646 -90.151585 -49.043535 69.903168 -48.915930 -3.661905 5.628006 -4.091526 -68.359279 -8.694319 26.854661 -60.243655 -8.589037 5.383285 -56.587540 -11.914736 -51.298580 -64.382073 49.446973 27.691865 -42.276962 -5.623792 5.442917 -42.851627 4.411938
7.267772 40.062336 -13.771102 169.729204 63.795517 168.933159 -1.814802 3.146385 -19.422235 -47.151132 -59.938468 69.905053 -24.193567 0.656608 -11.281443 -90.937904 -49.710988 70.642673 -49.327821 -4.077167 5.573796 -3.731204 -68.265992 -9.009098 26.773927 -60.351832 -8.667604 5.350884 -56.680277 -11.923465 -53.039113 -64.794098 51.092407 27.786588 -41.896985 -5.058575 5.214334 -42.575745 4.198036
7.187418 40.051674 -13.644786 169.717907 63.641729 168.751708 -1.780104 3.395809 -18.951919 -48.165842 -59.695204 70.762959 -24.988409 1.806190 -11.800911 -91.602392 -50.279830 71.319128 -49.733179 -4.487401 5.589658 -3.432692 -68.200054 -9.249364 26.673898 -60.472671 -8.729627 5.280539 -56.783635 -11.979941 -54.771943 -65.093328 52.774833 27.997871 -41.506588 -4.578497 4.975028 -42.306356 3.975375
7.103615 40.039586 -13.519279 169.683660 63.470291 168.561091 -1.753743 3.648307 -18.464098 -49.084984 -59.480491 71.499704 -25.790600 3.037923 -12.340503 -92.130926 -50.860792 71.938428 -50.220257 -4.884506 5.630183 -3.127946 -68.098222 -9.512963 26.553972 -60.589392 -8.798829 5.227693 -56.881231 -12.014271 -56.530856 -65.293043 54.513406 28.388151 -41.131198 -4.246678 4.756750 -42.075027 3.783451
7.019952 40.027875 -13.390634 169.633130 63.319713 168.342648 -1.726133 3.897843 -17.996433 -49.898285 -59.235212 72.157178 -26.563128 4.369535 -12.944839 -92.618513 -51.415253 72.527532 -50.966352 -5.259951 5.816709 -2.870793 -68.034381 -9.733649 26.469855 -60.689140 -8.848795 5.183614 -56.964987 -12.035197 -58.288186 -65.469303 56.260702 28.822954 -40.753393 -3.950280 4.503146 -41.848200 3.546533
6.944553 40.019411 -13.245987 169.647091 63.196332 168.181770 -1.653065 4.168889 -17.560478 -50.635071 -59.004898 72.739281 -27.321105 5.810194 -13.570153 -93.059497 -51.931308 73.060922 -51.948237 -5.608750 6.068739 -2.597907 -68.059440 -9.878433 26.503849 -60.702131 -8.941177 5.118122 -56.983346 -12.067274 -60.005862 -65.618713 58.059142 29.272920 -40.354766 -3.709043 4.290651 -41.602580 3.380367
6.858159 40.001735 -13.098768 169.613241 63.065944 168.007723 -1.594191 4.437404 -17.094550 -51.338553 -58.773293 73.226089 -27.937403 7.378880 -14.173904 -93.499218 -52.497585 73.531549 -53.398501 -5.894342 6.392952 -2.307921 -68.086529 -10.088855 26.553846 -60.751357 -9.019086 5.030465 -57.043267 -12.136610 -61.726626 -65.739929 59.812267 29.783296 -39.959660 -3.429000 4.035289 -41.365371 3.154191
6.765439 39.987156 -12.944594 169.595264 62.932837 167.882566 -1.570070 4.780334 -16.729852 -51.920318 -58.622667 73.718642 -28.738301 9.026166 -14.847477 -93.878047 -52.996701 73.975614 -55.384354 -6.088134 6.637465 -1.922442 -68.050438 -10.402688 26.613503 -60.806866 -9.113728 4.970856 -57.114838 -12.174427 -63.415513 -65.872585 61.510484 30.255757 -39.580270 -3.077948 3.785230 -41.135207 2.941685
6.662329 39.970815 -12.783741 169.576781 62.805755 167.816450 -1.560248 5.179779 -16.495351 -52.407727 -58.477860 74.213468 -29.614136 10.776129 -15.528877 -94.143065 -53.483472 74.362025 -58.297475 -6.106603 6.561204 -1.412678 -67.936388 -10.891176 26.678567 -60.955996 -9.195537 4.902352 -57.284674 -12.249623 -65.045961 -66.041434 63.139300 30.747780 -39.208616 -2.681245 3.499066 -40.911733 2.680243
